# xmcd
#
# Track frame offsets:
#	150
#	11740
#	21633
#	35535
#	49943
#	61818
#	77228
#	89795
#	100408
#	113930
#	129358
#	144408
#	159020
#	171773
#	185008
#	195403
#
# Disc length: 2777 seconds
#
# Revision: 3
# Processed by: cddbd v1.5.2PL0 Copyright (c) Steve Scherf et al.
# Submitted via: EasyCDDAExtractor 12.0.1.1
#
DISCID=da0ad710
DTITLE=CFD - Standard and Latin Dances
DYEAR=1992
DGENRE=Dance
TTITLE0=QS 50 - Get Out Of Your Lazy Bed
TTITLE1=QS 50 - Let's Dance
TTITLE2=EW 30 - Three Times A Lady
TTITLE3=EW 30 - See The Day
TTITLE4=SF 30 - Oh! Lori
TTITLE5=SF 30 - Moondance
TTITLE6=TG 33 - Money, Money, Money
TTITLE7=WW 69 - She's Leaving Home
TTITLE8=CC 30 - Kiss
TTITLE9=CC 30 - Smooth Operator
TTITLE10=SB 50 - Late In The Evening
TTITLE11=SB 50 - Shake Your Body
TTITLE12=RB 27 - And I Love Him
TTITLE13=RB 27 - On And On
TTITLE14=JV 44 - Hit The Road Jack
TTITLE15=JV 44 - Wake Me Up Before You Go-Go
EXTD=YEAR: 1992
EXTT0=
EXTT1=
EXTT2=
EXTT3=
EXTT4=
EXTT5=
EXTT6=
EXTT7=
EXTT8=
EXTT9=
EXTT10=
EXTT11=
EXTT12=
EXTT13=
EXTT14=
EXTT15=
PLAYORDER=
